<?xml version="1.0" encoding="UTF-8"?>
<svg xmlns="http://www.w3.org/2000/svg" viewBox="0 0 92.15 100">
  <defs>
    <style>
      .cls-1 {
        fill: #a366a9;
      }

      .cls-2 {
        fill: #4d4545;
        stroke: #1d1d1b;
        stroke-linecap: round;
        stroke-width: .25px;
      }

      .cls-2, .cls-3, .cls-4 {
        stroke-miterlimit: 10;
      }

      .cls-3 {
        stroke-width: .3px;
      }

      .cls-3, .cls-4 {
        fill: none;
        stroke: #a366a9;
      }

      .cls-4 {
        stroke-width: .5px;
      }

      .cls-5 {
        fill: #553845;
      }

      .cls-6 {
        fill: #ff8695;
      }
    </style>
  </defs>
  <g id="Fond">
    <g>
      <path class="cls-6" d="M68.56,99.85c-3.86,0-7.5-1.46-10.24-4.13l-.07-.07-.09.04c-2.49,1.17-5.25,1.79-7.98,1.79-4.31,0-8.35-1.84-11.1-5.05l-.07-.08-.1.04c-1.79.75-3.7,1.12-5.67,1.12-7.95,0-14.42-6.26-14.42-13.96,0-.11,0-.23,0-.35v-.1s-.08-.05-.08-.05c-4.42-2.49-7.17-7.11-7.17-12.06,0-1.91.39-3.76,1.16-5.49l.08-.18-.2-.03C5.51,60.37.15,54.42.15,47.46s5.29-12.81,12.29-13.81h.08s.03-.09.03-.09c.67-1.54,1.61-2.95,2.81-4.18l.06-.07-.03-.09c-.45-1.36-.68-2.79-.68-4.25,0-7.7,6.47-13.96,14.42-13.96,2.08,0,4.1.42,5.98,1.25l.08.04.07-.05c2.53-1.86,5.55-2.85,8.72-2.85h.1l.09-.1C46.27,3.83,51.71.15,57.73.15c7.95,0,14.42,6.26,14.42,13.96,0,1.34-.2,2.68-.59,3.96l-.03.11.1.06c4.31,2.51,6.99,7.1,6.99,11.97,0,1.32-.19,2.61-.56,3.84l-.06.19h.19c7.74.32,13.8,6.45,13.8,13.95,0,7.88-4.7,16.03-12.58,16.03-.43,0-.85-.02-1.27-.05l-.22-.02.07.21c.42,1.31.63,2.68.63,4.08,0,2.34-.33,4.59-.94,6.51l-.03.1.08.06c3.33,2.67,5.24,6.59,5.24,10.77,0,7.7-6.47,13.96-14.42,13.96Z"/>
      <path class="cls-1" d="M57.73.3c7.87,0,14.27,6.19,14.27,13.81,0,1.33-.2,2.65-.59,3.92l-.07.23.21.12c4.27,2.49,6.92,7.02,6.92,11.84,0,1.3-.18,2.58-.55,3.8l-.11.37.39.02c7.66.31,13.66,6.37,13.66,13.8,0,7.8-4.65,15.88-12.43,15.88-.43,0-.84-.02-1.26-.05l-.45-.04.14.43c.41,1.3.62,2.65.62,4.03,0,2.32-.32,4.56-.93,6.46l-.06.2.16.13c3.3,2.64,5.19,6.52,5.19,10.66,0,7.62-6.4,13.81-14.27,13.81-3.82,0-7.42-1.45-10.13-4.08l-.15-.14-.19.09c-2.47,1.16-5.21,1.77-7.92,1.77-4.26,0-8.27-1.82-10.99-5l-.14-.17-.2.08c-1.77.74-3.66,1.11-5.61,1.11-7.87,0-14.27-6.19-14.27-13.81,0-.11,0-.23,0-.33l.02-.19-.17-.09c-4.37-2.46-7.09-7.03-7.09-11.93,0-1.89.39-3.72,1.14-5.43l.16-.37-.4-.05c-7.04-.92-12.35-6.8-12.35-13.69s5.23-12.67,12.17-13.67l.17-.02.07-.15c.66-1.53,1.6-2.92,2.78-4.13l.13-.13-.06-.17c-.45-1.35-.68-2.76-.68-4.2,0-7.62,6.4-13.81,14.27-13.81,2.06,0,4.05.42,5.92,1.24l.16.07.14-.1c2.5-1.84,5.49-2.82,8.63-2.82h.26l.07-.19C46.38,3.94,51.77.3,57.73.3M57.73,0c-6.28,0-11.64,3.86-13.68,9.26h-.06c-3.31,0-6.36,1.07-8.81,2.87-1.84-.81-3.89-1.27-6.05-1.27-8.05,0-14.57,6.32-14.57,14.11,0,1.5.24,2.94.69,4.29-1.19,1.22-2.16,2.65-2.84,4.22-7.02,1.01-12.42,6.87-12.42,13.96s5.49,13.06,12.61,13.99c-.76,1.71-1.17,3.58-1.17,5.55,0,5.2,2.91,9.76,7.24,12.2,0,.12,0,.24,0,.36,0,7.79,6.52,14.11,14.57,14.11,2.03,0,3.96-.4,5.72-1.13,2.67,3.12,6.7,5.11,11.22,5.11,2.77,0,5.58-.64,8.05-1.8,2.64,2.57,6.3,4.17,10.34,4.17,8.05,0,14.57-6.32,14.57-14.11,0-4.38-2.06-8.3-5.3-10.89.65-2.01.95-4.26.95-6.55,0-1.44-.22-2.82-.64-4.12.42.04.85.05,1.28.05,8.05,0,12.73-8.38,12.73-16.18s-6.18-13.78-13.94-14.1c.37-1.23.56-2.54.56-3.88,0-5.13-2.84-9.63-7.07-12.1.39-1.27.6-2.62.6-4.01,0-7.79-6.52-14.11-14.57-14.11h0Z"/>
    </g>
    <ellipse class="cls-5" cx="31.5" cy="28.12" rx="4.28" ry="3.51" transform="translate(-10.71 26.73) rotate(-39.87)"/>
    <ellipse class="cls-5" cx="25.96" cy="23.26" rx="4.41" ry="3.51" transform="translate(-8.89 22.62) rotate(-40.81)"/>
  </g>
  <g id="icon">
    <path class="cls-5" d="M52.05,46.89l-31.86-27.97c-.22-.2-.24-.53-.03-.74l.02-.02c.21-.21.56-.22.78-.03l31.86,27.97c.22.2.24.53.03.74l-.02.02c-.21.21-.56.22-.78.03Z"/>
    <polygon class="cls-2" points="49.2 84.2 60.94 88.17 35.42 88.17 47.16 84.2 47.16 52.72 20.99 33.25 75.36 33.25 49.2 52.72 49.2 84.2"/>
    <rect class="cls-4" x="47.07" y="42.12" width="27.04" height=".5" rx=".23" ry=".23" transform="translate(-13.31 44.77) rotate(-36.82)"/>
    <rect class="cls-3" x="32.74" y="68.23" width="30.91" height=".04" rx=".02" ry=".02" transform="translate(-20.06 116.45) rotate(-90)"/>
  </g>
</svg>